<?xml version="1.0" encoding="utf-8"?>
<!-- Generator: Adobe Illustrator 19.0.0, SVG Export Plug-In . SVG Version: 6.00 Build 0)  -->
<svg version="1.1" id="layer" xmlns="http://www.w3.org/2000/svg" xmlns:xlink="http://www.w3.org/1999/xlink" x="0px" y="0px"
	 viewBox="-153 -46 652 652" style="enable-background:new -153 -46 652 652;" xml:space="preserve">
<style type="text/css">
	.st0{clip-path:url(#XMLID_33_);fill:url(#XMLID_34_);}
	.st1{clip-path:url(#XMLID_39_);fill:url(#XMLID_40_);}
	.st2{fill:#003764;}
	.st3{fill:#99918F;}
	.st4{fill:#84A5BF;}
</style>
<g id="XMLID_13_">
	<defs>
		<polygon id="XMLID_79_" points="168.8,229.8 129.8,278.3 148.7,278.3 187.7,229.8 		"/>
	</defs>
	<clipPath id="XMLID_33_">
		<use xlink:href="#XMLID_79_"  style="overflow:visible;"/>
	</clipPath>
	
		<linearGradient id="XMLID_34_" gradientUnits="userSpaceOnUse" x1="-190.103" y1="628.6902" x2="-183.8542" y2="628.6902" gradientTransform="matrix(0 4.3792 4.3792 0 -2594.377 1083.2139)">
		<stop  offset="0" style="stop-color:#FFFFFF"/>
		<stop  offset="0.1666" style="stop-color:#F1F5F8"/>
		<stop  offset="0.4807" style="stop-color:#CDDAE5"/>
		<stop  offset="0.906" style="stop-color:#92AFC6"/>
		<stop  offset="1" style="stop-color:#84A5BF"/>
	</linearGradient>
	<rect id="XMLID_80_" x="129.8" y="229.8" class="st0" width="57.9" height="48.6"/>
</g>
<g id="XMLID_14_">
	<defs>
		<polygon id="XMLID_76_" points="84.9,335.1 45.9,383.7 64.9,383.7 103.8,335.1 		"/>
	</defs>
	<clipPath id="XMLID_39_">
		<use xlink:href="#XMLID_76_"  style="overflow:visible;"/>
	</clipPath>
	
		<linearGradient id="XMLID_40_" gradientUnits="userSpaceOnUse" x1="-105.219" y1="726.7476" x2="-98.9702" y2="726.7476" gradientTransform="matrix(0 -5.4711 -5.4711 0 4050.9734 -196.4587)">
		<stop  offset="0" style="stop-color:#FFFFFF"/>
		<stop  offset="0.1553" style="stop-color:#F2F1F1"/>
		<stop  offset="0.4481" style="stop-color:#D0CDCD"/>
		<stop  offset="0.8444" style="stop-color:#999492"/>
		<stop  offset="1" style="stop-color:#827B79"/>
	</linearGradient>
	<rect id="XMLID_77_" x="45.9" y="335.1" class="st1" width="57.9" height="48.6"/>
</g>
<path id="XMLID_1_" class="st2" d="M84.3,331.5H34.2V265h49.3v13.3H54.2v12.2h27.9v13.4H54.2v14.2h30.1V331.5z M189.4,315.7
	c-3.2,1-5.9,1.7-8.1,2.2c-2.2,0.5-4.2,0.8-5.9,0.8c-1.8,0-3.6-0.4-5.5-1.2c-1.8-0.8-3.3-2.1-4.5-3.9c-1.2-1.8-1.8-4-1.8-6.5
	c0-3.9,1.2-6.8,3.6-8.6c2.4-1.9,5.1-2.8,8.2-2.8c3.2,0,7.6,0.9,13.2,2.7v-13.6c-2.3-0.9-4.6-1.5-6.9-2.1c-2.3-0.5-5.2-0.8-8.8-0.8
	c-5.4,0-9.9,0.9-13.6,2.7c-3.7,1.8-6.5,4-8.5,6.7c-1.9,2.7-3.3,5.4-4.1,8.3c-0.8,2.8-1.2,5.4-1.2,7.5c0,2.2,0.4,4.7,1.1,7.5
	c0.8,2.8,2.2,5.6,4.1,8.4c2,2.7,4.8,5,8.5,6.8c3.7,1.8,8.2,2.7,13.5,2.7c2.4,0,4.5-0.1,6.5-0.4c2-0.3,3.8-0.7,5.4-1.1
	c1.6-0.5,3.1-1,4.6-1.5V315.7z M247.5,301.5c0-13.1-5.9-19.7-17.6-19.7c-3.1,0-6.1,0.5-8.9,1.6c-2.8,1.1-5.6,3.2-8.4,6.2V265h-17.3
	v66.5h17.3v-28.7c1.5-2.2,3.1-4,4.7-5.5c1.7-1.4,3.6-2.2,5.8-2.2c2.8,0,4.7,1,5.7,2.9c1,2,1.5,4.1,1.5,6.4c0,0.6,0,0.9,0,1.1
	c0,0.2,0,0.4,0,0.5v25.3h17.3V301.5z M306,320c-1.9,0.9-3.3,1.4-4.4,1.4c-0.9,0-1.5-0.4-1.8-1.3c-0.3-0.9-0.5-2.2-0.5-4v-18.8
	c0-4.8-1.8-8.6-5.3-11.3c-3.6-2.7-8.9-4.1-15.9-4.1c-2.8,0-5.5,0.3-8.2,0.7c-2.7,0.5-5.3,1.2-7.8,2.2c-2.5,1-4.8,2.2-6.9,3.8v13.2
	c2.7-2.6,5.6-4.8,8.9-6.4c3.2-1.7,6.7-2.5,10.5-2.5c3.2,0,5.3,0.7,6.2,2c0.9,1.3,1.4,3.2,1.4,5.6c-0.7,0.3-1.3,0.6-1.9,0.9
	c-0.6,0.2-1.5,0.5-2.7,0.9c-1.2,0.4-3,1-5.4,1.7c-4.2,1.3-7.6,2.6-10.2,3.9c-2.6,1.2-4.6,2.8-6.1,4.8c-1.5,2-2.3,4.4-2.3,7.5
	c0,2,0.4,3.9,1.3,5.8c0.9,1.9,2.4,3.4,4.6,4.6c2.2,1.2,5.1,1.8,8.6,1.8c3.7,0,6.6-0.5,8.9-1.5c2.3-1,4.3-2.2,6.2-3.7
	c0.5,1.4,1.3,2.7,2.4,3.7c1.1,1,3.1,1.5,5.9,1.5c3,0,5.6-0.3,7.7-0.9c2.1-0.6,4.5-1.4,7-2.4V320z M282,319.7
	c-1.2,0.9-2.4,1.7-3.6,2.4c-1.2,0.7-2.3,1-3.5,1c-1.2,0-2.3-0.4-3.3-1.3c-0.9-0.9-1.4-2.1-1.4-3.7c0-2.3,0.9-4.1,2.8-5.4
	c1.9-1.3,4.9-2.8,9-4.5V319.7 M362.5,302.8c0-14-5.9-21-17.6-21c-3.4,0-6.4,0.6-9.1,1.7c-2.7,1.2-5.5,3.2-8.2,6.1v-7h-17.3v48.8
	h17.3v-28.7c0.6-0.9,1.2-1.7,1.8-2.4c0.6-0.8,1.3-1.6,2.1-2.4c0.8-0.8,1.8-1.5,2.9-2c1.1-0.5,2.3-0.8,3.7-0.8c3,0,4.9,1,5.8,3
	c0.9,2,1.3,4.3,1.3,7v1v25.3h17.3V302.8z M419.5,282.7h-26.8c-3.4,0-6.6,0.3-9.4,1.1c-2.9,0.7-5.4,1.8-7.6,3.3
	c-2.2,1.5-3.9,3.4-5.1,5.8c-1.2,2.4-1.8,5.2-1.8,8.4c0,4.2,1.3,7.7,4,10.3c2.7,2.6,5.8,4.5,9.5,5.4c-2.6,0.5-4.5,1.5-5.7,3.2
	c-1.2,1.7-1.7,3.3-1.7,5c0,1.3,0.4,2.6,1.2,3.8c0.8,1.2,1.8,2,3,2.4c-3.3,0.4-5.7,1.3-7.5,2.6c-1.7,1.3-2.8,2.6-3.4,4
	c-0.5,1.4-0.8,2.6-0.8,3.6c0,3.9,2,7,6.1,9.3c4.1,2.3,10.5,3.5,19.2,3.5c6,0,10.9-0.7,14.6-2c3.7-1.3,6.3-3.1,8-5.5
	c1.6-2.3,2.5-5,2.5-8.1c0-3.8-1.1-6.7-3.3-8.8c-2.2-2-4.6-3.4-7.1-4c-2.6-0.6-5.3-1.1-8.3-1.3c-2.6-0.2-4.5-0.4-5.6-0.6
	c-1.1-0.2-1.9-0.4-2.4-0.8c-0.5-0.3-0.8-0.9-0.8-1.7c0-2,2-3,6-3.2c3.1-0.2,5.9-0.7,8.3-1.6c2.4-0.9,4.4-2.1,6.1-3.5
	c1.6-1.4,2.9-3.1,3.7-4.9c0.8-1.8,1.3-3.8,1.3-5.8c0-3.8-1.5-7-4.5-9.6h8.5V282.7z M403.9,340.6c0,1.9-1,3.4-2.9,4.3
	c-1.9,0.9-4.6,1.4-7.9,1.4c-7.4,0-11-1.8-11-5.5c0-1.9,0.9-3.2,2.6-4.1c1.8-0.8,4.7-1.3,8.7-1.3c2.4,0,4.8,0.3,7.1,0.9
	C402.7,337.1,403.9,338.4,403.9,340.6 M400.4,301.3c0,2.2-0.8,4-2.4,5.6c-1.6,1.6-3.7,2.3-6.2,2.3c-1.6,0-3.1-0.4-4.3-1.1
	c-1.2-0.7-2.1-1.7-2.8-2.8c-0.7-1.2-1-2.5-1-3.8c0-2,0.7-3.9,2.3-5.7c1.5-1.8,3.6-2.7,6.3-2.7c2.1,0,4,0.7,5.6,2.2
	C399.6,296.9,400.4,298.9,400.4,301.3 M473.3,307.8c0-6.1-1.2-11.1-3.6-15c-2.4-3.9-5.4-6.7-9.1-8.4c-3.7-1.7-7.5-2.6-11.5-2.6
	c-6,0-11.1,1.1-15.3,3.2c-4.2,2.2-7.4,5.1-9.5,8.9c-2.1,3.8-3.1,8.1-3.1,12.9c0,4.9,1,9.2,3.1,13.1c2.1,3.8,5.3,6.9,9.5,9.1
	c4.2,2.2,9.3,3.3,15.3,3.3c5.6,0,10.1-0.5,13.7-1.6c3.6-1.1,6.7-2.3,9.2-3.6v-10.7c-7,3.3-13.5,4.9-19.3,4.9c-3.3,0-6.3-0.9-8.9-2.8
	c-2.6-1.9-4.3-4.3-4.9-7.3h34.4V307.8z M438.4,302.7c0-3.1,0.9-5.6,2.7-7.4c1.8-1.9,4.1-2.9,7-2.9c2.9,0,5.1,0.9,6.7,2.8
	c1.5,1.9,2.3,4.4,2.3,7.5H438.4z M145.8,282.7h-18.9L107.3,307l2.8,3.5l0.3,0.3l6.4,8l0,0l10.1,12.6h18.9l-19.6-24.4L145.8,282.7z"
	/>
<path id="XMLID_25_" d="M113.9,322.5l-7.2,9H87.8l16.7-20.8l6.6,8.2l0,0L113.9,322.5z M113.9,291.7l-7.2-9H87.8l16.6,20.8
	L113.9,291.7z M64.6,210.4h5v37h-4.6l-24.7-28.5v28.5h-5v-37h4.3l24.9,28.7V210.4z M93.3,247.3h21.5v-4.7H98.6v-11.5h15.1v-4.7H98.6
	v-11.3h15.7v-4.7h-21V247.3z M151.5,224.5l-11.6-14.1h-6.5l14.8,17.8l-15.9,19.2h6.5l12.7-15.3l12.6,15.3h6.4l-15.8-19.2l14.8-17.8
	H163L151.5,224.5z M184.8,215.1h12.7v32.3h5.3v-32.3h12.9v-4.7h-30.9V215.1z M267.3,247.4h22v-4.8h-16.7v-32.2h-5.3V247.4z
	 M309.7,247.3h21.5v-4.7H315v-11.5h15.1v-4.7H315v-11.3h15.7v-4.7h-21V247.3z M365,236.4l-11.1-26h-5.3l15.9,37.1h1.2l15.6-37.1H376
	L365,236.4z M401.1,247.3h21.5v-4.7h-16.2v-11.5h15.1v-4.7h-15.1v-11.3h15.7v-4.7h-21V247.3z M444,247.4h22v-4.8h-16.7v-32.2H444
	V247.4z"/>
<path id="XMLID_45_" class="st3" d="M-50.7,206.2c0.2,0.7,0.3,1.5,0.3,2.2c0,2.4-1,4.8-2.9,6.5c5.4,3.9,13.8,12,18.9,27l-19,0
	l0-26.9c-0.2,0.1-0.3,0.3-0.5,0.4c-1.3,0.9-2.8,1.4-4.3,1.6c-0.2,0-0.4,0-0.6,0h0c-0.1,0-0.6,0-0.8,0.1c0,0-0.9,0.1-1.6,0.8
	c-0.6,0.6-0.8,1.5-0.9,2l0,19.2c2.7,0,4.9,2.2,4.9,4.9s-2.2,4.9-4.9,4.9l0,19.1c2.7,0,4.9,2.2,4.9,4.9c0,2.7-2.2,4.9-4.9,4.9l0,19.3
	c2.7,0,4.9,2.2,4.9,4.9c0,2.7-2.2,4.9-4.9,4.9l0,16.6l0-0.2c0,0-0.1,1.4,0.6,2.4c0.6,0.8,1.7,0.9,1.7,0.9c0.3,0.1,0.7,0.1,0.8,0.1h0
	c0.2,0,0.4,0,0.6,0c1.5,0.1,3,0.6,4.3,1.6c2.4,1.7,3.6,4.4,3.6,7.1c0,1.1-0.2,2.3-0.7,3.4c3-2.4,8.4-7.2,15.3-15.8l0,0
	c7.6-10.4,14.6-26.6,14.6-51.4C-21.3,229.6-41.4,212.1-50.7,206.2 M-53.5,246.3l20.4,0c1.9,6.8,3.1,14.9,3.1,24.5l-23.5,0
	L-53.5,246.3z M-53.4,328.4l0-24.2l18,0C-40.7,317.4-48.4,324.8-53.4,328.4 M-34,299.8l-19.5,0l0-24.7l23.4,0
	C-30.3,284.9-31.8,293-34,299.8"/>
<path id="XMLID_29_" class="st4" d="M-55.2,182.2c-1.5,1.1-3.7,0.7-4.8-0.8c-1.1-1.5-0.7-3.7,0.8-4.8c1.6-1.1,3.7-0.7,4.8,0.8
	C-53.3,179-53.6,181.1-55.2,182.2 M-54.4,361.2c-1.5-1.1-3.7-0.8-4.8,0.8c-1.1,1.6-0.8,3.7,0.8,4.8c1.6,1.1,3.7,0.8,4.8-0.8
	C-52.5,364.5-52.9,362.3-54.4,361.2"/>
<path id="XMLID_10_" class="st2" d="M-54.8,196.2c-2.1,1.5-5.1,1-6.6-1.1c-1.5-2.1-1-5,1.1-6.6c2.1-1.5,5.1-1,6.6,1.1
	C-52.1,191.8-52.6,194.7-54.8,196.2 M-53.9,347.2c-2.1-1.5-5-1-6.6,1.1c-1.5,2.1-1,5,1.1,6.6c2.1,1.5,5,1,6.6-1.1
	C-51.3,351.6-51.8,348.7-53.9,347.2 M-44.2,204.6c5.3,3.4,10,8.3,14.1,14.2c10,5.3,18.3,13.3,24,23.1l-13.3,0
	c0.4,1.4,0.8,2.9,1.2,4.4h14.4c3.5,7.4,5.6,15.8,5.7,24.5l-17.1,0c0,0.5,0,1,0,1.5c0,0.9,0,1.9-0.1,2.8l17.1,0
	c-0.5,8.9-2.9,17.2-6.8,24.7h-13.7c-0.4,1.5-0.8,2.9-1.2,4.4l12.4,0c-5.4,8.5-13,15.6-21.9,20.4c-3.9,5.9-8.4,10.8-13.5,14.3
	c30.6-6.9,53.5-34.3,53.5-67C10.8,238.8-12.8,211.1-44.2,204.6 M-56,331.3c2.4,1.7,2.9,5,1.2,7.3c-1,1.4-2.6,2.1-4.1,2.2v0
	c0,0-0.1,0-0.2,0c-0.1,0-0.1,0-0.2,0c-0.7,0-2.4-0.1-4.3-0.3c-2.4-0.2-4.2-0.5-4.9-0.6c-32.9-5.1-58.1-33.6-58.2-67.9
	c0-34.3,25.1-62.8,58-68c0.6-0.1,2.5-0.4,5.1-0.7c2.6-0.2,4.6-0.3,4.6-0.3v0c1.6,0,3.2,0.8,4.2,2.2c1.7,2.4,1.1,5.7-1.2,7.3
	c-0.9,0.6-1.9,0.9-2.9,1v0c0,0-1.3,0-2.2,0.3c-0.7,0.3-1.3,0.7-1.3,0.7v0c-5.4,3.8-14,11.9-19.1,27.2l19.3,0c0,0,0,0,0,0
	c1.2,0,2.2,1,2.2,2.2c0,1.2-1,2.2-2.2,2.2c0,0-0.1,0-0.1,0l-20.6,0c-1.8,6.8-3,14.9-3.1,24.5l23.7,0c0,0,0,0,0.1,0
	c1.2,0,2.2,1,2.2,2.2c0,1.2-1,2.2-2.2,2.2h0v0l-23.7,0c0.3,9.7,1.8,17.9,4,24.7l19.7,0h0c1.2,0,2.2,1,2.2,2.2c0,1.2-1,2.2-2.2,2.2h0
	v0l-18.2,0c5.2,13.3,12.9,21.5,18,25c0,0,0.6,0.5,1.3,0.7c0.9,0.3,2.2,0.3,2.2,0.3v0C-57.9,330.3-56.9,330.7-56,331.3 M-75.5,214.6
	c-14.6,4.5-26.9,14.4-34.4,27.4l19.1,0C-87,229.3-81.1,220.5-75.5,214.6 M-112.2,246.3c-3.5,7.4-5.6,15.8-5.8,24.5l23.2,0
	c0-9.3,1.1-17.5,2.8-24.5L-112.2,246.3 M-117.9,275.2c0.5,8.9,2.9,17.2,6.8,24.7h8.7v0l11.3,0c-2-7-3.3-15.2-3.6-24.7L-117.9,275.2
	 M-108.5,304.2c7.8,12.2,20,21.5,34.3,25.5c-5.5-5.5-11.4-13.7-15.5-25.5L-108.5,304.2"/>
</svg>
